<?xml version="1.0" encoding="UTF-8"?>
<svg id="Layer_2" data-name="Layer 2" xmlns="http://www.w3.org/2000/svg" viewBox="0 0 237.66 139.02">
  <g id="logo-group" data-name="Layer 1">
    <path class="cls-1" d="M31.32,73.08l1.38.06c6.58.44,10.03,4.56,9.9,11.1l-.12,1.56-.3,1.56c-.97,5.71-6.67,11.32-10.44,15.42l-1.44,1.38-17.22,17.34v6h35.64v-6.12h-27.54v-.18l13.68-13.44.06-.12c2.67-2.57,5-5.09,7.38-7.92l.9-1.2.84-1.14c1.47-1.9,2.98-4.41,3.78-6.66l.54-1.5.36-1.5.3-1.5c1.31-8.88-2.65-16.25-11.64-18.36l-1.62-.3-1.68-.18-1.8-.06h-.12c-5.35.1-10.35,1.39-14.76,4.5l-1.26.9h0v7.14l1.2-1.08c3.84-3.2,7.51-5.15,12.54-5.64l1.44-.06Z"/>
    <polyline class="cls-2" points="0 0 .96 .96 60.18 0"/>
    <polyline class="cls-2" points=".96 .96 60.18 0 59.16 .96"/>
    <polyline class="cls-2" points="60.18 0 59.16 .96 60.18 139.02"/>
    <polyline class="cls-2" points="59.16 .96 60.18 139.02 59.16 138"/>
    <polyline class="cls-2" points="60.18 139.02 59.16 138 0 139.02"/>
    <polyline class="cls-2" points="59.16 138 0 139.02 .96 138"/>
    <polyline class="cls-2" points="0 139.02 .96 138 0 0"/>
    <polyline class="cls-2" points=".96 138 0 0 .96 .96"/>
    <polyline class="cls-2" points="88.74 0 89.76 .96 148.92 0"/>
    <polyline class="cls-2" points="89.76 .96 148.92 0 147.9 .96"/>
    <polyline class="cls-2" points="148.92 0 147.9 .96 148.92 139.02"/>
    <polyline class="cls-2" points="147.9 .96 148.92 139.02 147.9 138"/>
    <polyline class="cls-2" points="148.92 139.02 147.9 138 88.74 139.02"/>
    <polyline class="cls-2" points="147.9 138 88.74 139.02 89.76 138"/>
    <polyline class="cls-2" points="88.74 139.02 89.76 138 88.74 0"/>
    <polyline class="cls-2" points="89.76 138 88.74 0 89.76 .96"/>
    <polyline class="cls-2" points="177.48 0 178.5 .96 237.66 0"/>
    <polyline class="cls-2" points="178.5 .96 237.66 0 236.64 .96"/>
    <polyline class="cls-2" points="237.66 0 236.64 .96 237.66 139.02"/>
    <polyline class="cls-2" points="236.64 .96 237.66 139.02 236.64 138"/>
    <polyline class="cls-2" points="237.66 139.02 236.64 138 177.48 139.02"/>
    <polyline class="cls-2" points="236.64 138 177.48 139.02 178.5 138"/>
    <polyline class="cls-2" points="177.48 139.02 178.5 138 177.48 0"/>
    <polyline class="cls-2" points="178.5 138 177.48 0 178.5 .96"/>
    <polyline class="cls-2" points="136.74 67.32 106.68 67.32 106.68 126.48 113.64 126.48 113.64 100.26 135 100.26 135 94.08 113.64 94.08 113.64 73.56 136.74 73.56"/>
    <path class="cls-1" d="M193.86,122.94l1.2.9c9.54,6.78,24.83,5.53,34.8.36l1.32-.72v-26.82h-19.86v6.24h12.96v16.62c-3.69,1.93-7.86,2.77-12,2.76h-.78l-1.74-.12c-12.28-1.05-18.93-10.34-19.38-22.14-.8-12.56,6.19-24.52,19.32-26.22l1.62-.12,1.68-.06c5.44-.04,10.96,1.1,15.72,3.78l1.26.78v-7.68l-.6-.3c-4.15-1.78-7.52-2.39-12-2.76-.9-.03-2.7-.09-3.6-.12l-1.08.06c-5.65.08-11.47,1.62-16.14,4.86l-1.26.84-1.2.96c-14.43,11.14-14.97,37.87-.24,48.9h0Z"/>
    <polyline class="cls-2" points="52.62 5.1 51.48 5.1 47.7 14.94 48.96 14.94 49.92 12.18 54.12 12.18 50.34 11.16 51.84 6.96 51.9 6.84 51.96 6.6 52.02 6.3"/>
    <polyline class="cls-2" points="52.62 5.1 52.02 6.3 52.08 6.42 52.14 6.72 52.2 6.96 53.76 11.16 50.34 11.16 54.12 12.18 55.14 14.94 56.46 14.94"/>
    <path class="cls-2" d="M139.26,10.62l-2.04.12h.3c.83.2,1.21.77,1.62,1.44l1.62,2.76h1.38l-1.8-2.94c-.3-.25-.24-.63-.72-1.02l-.12-.18"/>
    <path class="cls-2" d="M140.4,5.94l-2.58.18h.24l.6.12.24.06.24.12.18.12v.06l.18.18c.35.43.36,1.05.24,1.56l-.06.24-.06.18c-.42.59-.76.84-1.5.9l-.3.06h-1.56l3.78.06c1.05-.7,1.29-2.38.66-3.42l-.12-.24"/>
    <path class="cls-2" d="M138.06,5.1h-2.94v9.84h1.14v-4.2h.96l2.04-.12-.18-.12-.24-.12.18-.06.24-.12.24-.06.24-.18h.06l.24-.18-3.78-.06v-3.6h1.56l2.58-.18-.24-.18c-.41-.42-1-.57-1.56-.66h-.3"/>
    <path class="cls-2" d="M233.4,16.38l-.24.06-.24.06h-.48l-2.46.18.18.18c1.01.72,1.78.85,3,.66l.24-.06"/>
    <path class="cls-2" d="M231.48,5.82l-2.94.12h.12l.3.06c2.02.09,2.94,1.88,3,3.72v.48c.04,1.9-1.11,3.81-3.18,3.84h-.3l-2.88.12.24.18h.06c.27.26.95.52,1.32.6l.3.06h.06c1.3.33.51-.25,1.5.9l.24.18v.06l.24.18.18.18.24.18,2.46-.18h-.24c-1.08,0-1.57-.76-2.28-1.32l-.18-.24.3-.06.24-.12c1.51-.46,2.5-1.97,2.76-3.48l.06-.24v-.3c.23-1.51-.12-3.3-1.2-4.44l-.06-.06-.18-.24"/>
    <path class="cls-2" d="M228.66,4.92h-.12c-5.05-.12-6.07,6.73-2.94,9.24l2.88-.12h-.66c-.99-.26-1.08-.37-1.8-1.08l-.12-.06-.12-.24c-.52-.81-.54-1.13-.72-2.04v-.78c.03-1.99,1.1-3.62,3.18-3.9h.3l2.94-.12-.24-.12c-.55-.49-1.29-.62-1.98-.78h-.3"/>
  </g>
</svg>